<svg id="svg" version="1.1" xmlns="http://www.w3.org/2000/svg" xmlns:xlink="http://www.w3.org/1999/xlink" width="400" height="405.3798961774422" viewBox="0, 0, 400,405.3798961774422"><g id="svgg"><path id="path0" d="M215.963 0.164 C 213.061 0.347,207.244 0.830,205.659 1.019 C 202.347 1.414,195.137 2.475,193.666 2.784 C 193.480 2.823,192.530 3.006,191.554 3.192 C 189.560 3.570,186.608 4.213,184.459 4.737 C 183.670 4.930,182.872 5.119,182.686 5.159 C 182.119 5.279,179.210 6.037,177.956 6.391 C 175.586 7.061,171.610 8.270,171.199 8.446 C 171.014 8.526,170.443 8.716,169.932 8.868 C 169.421 9.021,168.851 9.211,168.666 9.291 C 168.480 9.371,168.024 9.527,167.652 9.639 C 167.280 9.750,166.900 9.894,166.807 9.959 C 166.715 10.023,166.296 10.173,165.878 10.290 C 165.460 10.408,164.890 10.607,164.611 10.733 C 164.333 10.858,163.383 11.235,162.500 11.571 C 161.617 11.907,160.667 12.283,160.389 12.406 C 160.110 12.530,159.692 12.687,159.459 12.755 C 159.066 12.870,157.855 13.384,156.672 13.938 C 155.543 14.467,153.872 15.203,153.801 15.203 C 153.133 15.203,139.790 22.149,136.857 24.024 C 136.607 24.184,136.100 24.479,135.732 24.680 C 135.363 24.880,134.869 25.177,134.634 25.338 C 134.398 25.499,133.826 25.867,133.361 26.156 C 132.897 26.444,132.434 26.750,132.332 26.836 C 132.230 26.921,131.888 27.124,131.572 27.286 C 131.256 27.448,130.959 27.628,130.912 27.685 C 130.866 27.742,129.611 28.613,128.125 29.619 C 124.441 32.113,123.990 32.427,122.867 33.277 C 122.560 33.509,121.945 33.965,121.501 34.291 C 120.465 35.049,120.517 35.009,119.426 35.862 C 116.791 37.920,115.717 38.787,114.883 39.527 C 114.726 39.666,114.242 40.069,113.806 40.422 C 113.371 40.774,112.918 41.157,112.800 41.271 C 112.681 41.385,112.052 41.936,111.402 42.495 C 106.549 46.668,100.223 52.960,95.700 58.112 C 94.682 59.271,93.682 60.410,93.477 60.642 C 93.272 60.874,92.512 61.786,91.789 62.669 C 91.066 63.552,90.413 64.299,90.338 64.330 C 89.822 64.544,90.416 64.910,92.272 65.522 C 95.702 66.653,97.734 67.383,98.902 67.905 C 99.088 67.988,99.822 68.283,100.533 68.560 C 101.244 68.838,102.171 69.222,102.593 69.414 C 103.015 69.606,103.407 69.764,103.464 69.764 C 103.598 69.764,104.569 70.218,108.530 72.135 C 113.467 74.523,112.915 74.240,115.774 75.845 C 116.685 76.356,117.708 76.926,118.048 77.111 C 118.388 77.297,118.704 77.492,118.750 77.545 C 118.796 77.598,119.284 77.896,119.834 78.207 C 120.767 78.735,123.352 80.381,123.734 80.690 C 123.828 80.766,124.581 81.282,125.408 81.838 C 126.235 82.393,126.995 82.926,127.096 83.022 C 127.197 83.118,127.506 83.342,127.783 83.519 C 128.059 83.696,128.363 83.905,128.458 83.983 C 128.636 84.127,130.164 85.323,131.334 86.233 C 131.693 86.512,132.109 86.854,132.260 86.993 C 132.410 87.133,133.029 87.678,133.635 88.205 L 134.736 89.164 137.849 86.087 C 141.383 82.595,144.985 79.327,147.328 77.487 C 147.822 77.099,148.264 76.739,148.311 76.687 C 148.495 76.479,153.076 73.007,154.213 72.213 C 154.878 71.748,155.514 71.291,155.625 71.197 C 155.737 71.103,156.054 70.881,156.330 70.704 C 156.606 70.527,156.910 70.316,157.006 70.236 C 157.237 70.043,160.035 68.237,161.824 67.126 C 163.578 66.038,167.936 63.574,170.065 62.466 C 170.928 62.018,171.764 61.578,171.923 61.490 C 172.416 61.218,176.175 59.459,176.265 59.459 C 176.341 59.459,177.150 59.096,179.319 58.089 C 179.696 57.914,180.061 57.770,180.130 57.770 C 180.199 57.770,180.574 57.627,180.964 57.451 C 181.353 57.276,182.432 56.855,183.361 56.515 C 184.291 56.176,185.203 55.830,185.389 55.747 C 185.902 55.518,190.120 54.127,191.554 53.714 C 198.644 51.672,203.595 50.610,209.628 49.839 C 211.068 49.655,212.855 49.425,213.598 49.329 C 218.791 48.654,231.217 48.653,236.909 49.327 C 241.331 49.850,244.031 50.206,245.777 50.496 C 249.788 51.164,254.627 52.256,259.375 53.565 C 260.397 53.847,261.385 54.142,261.571 54.220 C 261.757 54.298,262.859 54.670,264.020 55.048 C 265.182 55.425,266.778 55.968,267.568 56.255 C 268.357 56.542,269.345 56.897,269.764 57.044 C 270.182 57.191,270.600 57.367,270.693 57.434 C 270.785 57.501,271.280 57.691,271.791 57.855 C 272.302 58.019,272.796 58.210,272.889 58.279 C 272.981 58.348,273.628 58.651,274.324 58.951 C 275.021 59.251,275.857 59.613,276.182 59.755 C 277.413 60.293,282.914 63.037,284.308 63.808 C 287.538 65.594,288.432 66.116,288.485 66.247 C 288.516 66.323,288.610 66.385,288.694 66.385 C 289.142 66.385,296.617 71.353,299.409 73.506 C 300.452 74.310,300.795 74.573,301.420 75.049 C 302.126 75.586,306.150 78.903,306.250 79.031 C 306.296 79.090,306.902 79.633,307.596 80.236 C 310.947 83.153,314.712 86.953,318.157 90.894 C 320.480 93.551,320.687 93.799,321.622 95.030 C 322.040 95.580,322.463 96.106,322.562 96.199 C 322.662 96.292,322.868 96.558,323.020 96.791 C 323.173 97.023,323.775 97.833,324.360 98.591 C 324.944 99.349,325.536 100.138,325.676 100.345 C 325.815 100.552,326.245 101.158,326.631 101.691 C 327.017 102.223,327.660 103.182,328.061 103.821 C 328.462 104.460,328.888 105.084,329.007 105.206 C 329.126 105.329,329.223 105.495,329.223 105.574 C 329.223 105.654,329.328 105.824,329.457 105.953 C 329.585 106.082,329.854 106.486,330.053 106.852 C 330.253 107.218,330.652 107.897,330.941 108.361 C 331.229 108.826,331.597 109.434,331.758 109.713 C 331.919 109.992,332.439 110.887,332.913 111.703 C 333.685 113.033,336.939 119.517,337.806 121.453 C 337.993 121.871,338.343 122.652,338.583 123.189 C 338.824 123.726,339.020 124.206,339.020 124.256 C 339.020 124.305,339.210 124.761,339.443 125.269 C 339.675 125.777,339.865 126.289,339.865 126.407 C 339.865 126.525,339.932 126.694,340.013 126.782 C 340.183 126.966,340.575 128.019,341.678 131.250 C 342.106 132.504,342.521 133.682,342.599 133.868 C 342.813 134.377,343.895 138.141,344.614 140.878 C 346.008 146.179,347.163 152.523,347.721 157.939 C 347.860 159.286,348.055 161.035,348.156 161.824 C 348.432 164.006,348.548 175.286,348.328 178.632 C 348.011 183.464,346.874 193.302,346.522 194.257 C 346.471 194.396,346.284 195.270,346.108 196.199 C 345.668 198.513,345.014 201.518,344.617 203.041 C 344.436 203.737,344.130 204.933,343.938 205.697 C 343.745 206.462,343.441 207.564,343.260 208.146 C 343.080 208.729,342.728 209.890,342.477 210.726 C 341.897 212.657,341.074 215.186,340.881 215.625 C 340.800 215.811,340.643 216.267,340.532 216.639 C 340.422 217.010,340.231 217.542,340.108 217.821 C 339.985 218.100,339.610 219.050,339.275 219.932 C 338.666 221.538,338.167 222.782,337.749 223.733 C 337.626 224.012,337.249 224.886,336.910 225.676 C 335.318 229.383,332.261 235.519,330.733 238.074 C 330.561 238.362,330.287 238.864,330.126 239.189 C 329.964 239.514,329.781 239.818,329.719 239.865 C 329.657 239.911,329.443 240.253,329.244 240.625 C 328.615 241.797,328.363 242.210,326.772 244.679 C 324.738 247.834,321.930 251.937,321.628 252.196 C 321.574 252.242,321.384 252.508,321.207 252.787 C 320.921 253.236,317.254 257.900,316.811 258.379 C 316.716 258.481,316.296 258.972,315.878 259.470 C 315.460 259.968,314.966 260.536,314.780 260.732 C 314.595 260.928,313.989 261.615,313.434 262.259 C 312.879 262.902,310.903 264.951,309.042 266.811 C 306.071 269.781,304.670 271.093,302.805 272.649 C 302.536 272.874,302.194 273.176,302.045 273.322 C 301.570 273.784,299.151 275.710,297.136 277.232 C 296.063 278.041,295.105 278.772,295.006 278.856 C 294.907 278.940,294.666 279.094,294.470 279.199 C 294.274 279.304,294.013 279.485,293.890 279.602 C 293.569 279.906,289.153 282.786,287.457 283.798 C 286.855 284.156,286.692 284.367,286.536 284.980 C 286.432 285.391,286.155 286.372,285.920 287.162 C 284.889 290.629,283.905 294.070,283.458 295.777 C 283.275 296.474,282.926 297.804,282.682 298.733 C 282.438 299.662,282.056 301.182,281.832 302.111 C 281.608 303.041,281.270 304.447,281.079 305.236 C 279.729 310.841,278.016 320.715,277.461 326.098 C 277.297 327.687,276.848 331.887,276.702 333.193 C 276.383 336.054,276.336 336.993,276.512 336.993 C 276.905 336.993,285.617 334.095,286.909 333.534 C 287.188 333.414,287.606 333.260,287.838 333.193 C 288.070 333.125,288.488 332.969,288.767 332.846 C 289.046 332.722,290.148 332.281,291.216 331.866 C 293.722 330.893,297.622 329.228,299.662 328.260 C 302.253 327.031,308.178 324.096,308.361 323.951 C 308.454 323.878,309.107 323.519,309.811 323.154 C 310.516 322.789,311.770 322.095,312.598 321.613 C 313.427 321.130,314.409 320.574,314.780 320.376 C 315.152 320.179,315.532 319.958,315.625 319.886 C 315.779 319.767,317.908 318.477,318.912 317.893 C 319.141 317.761,319.420 317.576,319.532 317.483 C 319.644 317.390,320.129 317.086,320.610 316.807 C 321.092 316.529,321.698 316.130,321.958 315.921 C 322.218 315.712,322.479 315.541,322.539 315.541 C 322.867 315.541,332.512 308.627,334.128 307.234 C 334.270 307.111,334.838 306.668,335.389 306.250 C 335.939 305.832,336.507 305.376,336.650 305.236 C 336.793 305.097,337.666 304.376,338.589 303.634 C 339.513 302.891,340.426 302.131,340.620 301.944 C 340.813 301.758,341.497 301.149,342.139 300.591 C 342.782 300.034,343.768 299.160,344.331 298.650 C 346.066 297.078,354.422 288.685,355.839 287.091 C 356.576 286.261,357.369 285.376,357.601 285.122 C 358.101 284.577,358.441 284.181,359.460 282.954 C 359.878 282.451,360.433 281.805,360.694 281.518 C 361.412 280.728,365.523 275.471,366.649 273.902 C 366.782 273.716,367.177 273.173,367.525 272.694 C 367.874 272.215,368.273 271.657,368.412 271.452 C 368.552 271.247,369.088 270.499,369.604 269.788 C 370.421 268.663,374.341 262.656,375.186 261.233 C 375.816 260.173,376.945 258.186,377.010 258.024 C 377.047 257.931,377.128 257.817,377.189 257.770 C 377.381 257.624,378.742 255.155,380.260 252.197 C 380.665 251.408,381.235 250.333,381.526 249.809 C 381.817 249.284,382.400 248.106,382.821 247.189 C 383.242 246.273,384.011 244.640,384.530 243.559 C 385.049 242.478,385.473 241.549,385.473 241.494 C 385.473 241.439,385.701 240.896,385.980 240.287 C 386.258 239.679,386.486 239.137,386.486 239.084 C 386.486 238.987,386.578 238.773,387.378 236.993 C 387.607 236.482,387.891 235.760,388.007 235.389 C 388.124 235.017,388.275 234.637,388.343 234.544 C 388.411 234.451,388.623 233.919,388.815 233.361 C 389.006 232.804,389.400 231.702,389.689 230.912 C 390.998 227.334,392.449 222.763,394.005 217.314 C 394.425 215.842,395.348 211.954,396.050 208.699 C 397.950 199.892,398.623 194.942,399.656 182.179 C 400.233 175.045,399.924 161.339,398.997 153.021 C 397.891 143.088,396.508 135.718,393.834 125.507 C 393.556 124.445,391.067 116.375,390.761 115.541 C 390.622 115.163,389.196 111.203,388.815 110.135 C 388.632 109.624,388.424 109.130,388.351 109.037 C 388.279 108.944,388.086 108.450,387.922 107.939 C 387.758 107.428,387.568 106.934,387.500 106.841 C 387.431 106.748,387.279 106.368,387.162 105.997 C 387.045 105.625,386.895 105.245,386.828 105.152 C 386.761 105.059,386.457 104.375,386.153 103.632 C 383.842 97.990,377.814 86.278,375.485 82.904 C 375.311 82.652,375.169 82.407,375.169 82.360 C 375.169 82.037,368.450 72.011,366.990 70.154 C 366.611 69.672,366.111 69.004,365.878 68.668 C 365.646 68.333,364.962 67.430,364.358 66.661 C 363.754 65.893,363.032 64.972,362.753 64.615 C 362.475 64.259,362.095 63.794,361.909 63.583 C 361.723 63.372,361.343 62.919,361.064 62.577 C 360.785 62.235,360.416 61.792,360.243 61.594 C 360.070 61.395,359.652 60.896,359.314 60.484 C 358.976 60.072,358.547 59.573,358.361 59.374 C 358.176 59.175,357.530 58.451,356.926 57.763 C 353.657 54.044,347.289 47.671,343.398 44.225 C 341.115 42.203,339.841 41.124,337.247 39.015 C 334.775 37.006,334.781 37.011,332.144 35.008 C 330.389 33.675,329.520 33.053,325.253 30.071 C 324.975 29.876,324.367 29.475,323.902 29.180 C 323.438 28.886,323.019 28.595,322.973 28.535 C 322.927 28.475,322.630 28.293,322.313 28.131 C 321.997 27.968,321.655 27.766,321.553 27.680 C 321.451 27.594,320.646 27.072,319.764 26.520 C 318.881 25.968,318.047 25.419,317.910 25.301 C 317.772 25.182,317.620 25.092,317.572 25.102 C 317.523 25.112,317.217 24.952,316.892 24.747 C 316.567 24.542,315.997 24.207,315.625 24.003 C 315.253 23.799,314.569 23.410,314.105 23.139 C 313.640 22.868,313.146 22.594,313.007 22.530 C 312.867 22.467,312.620 22.301,312.458 22.161 C 312.295 22.021,312.162 21.966,312.162 22.038 C 312.162 22.111,312.059 22.084,311.933 21.980 C 311.262 21.423,300.700 16.047,300.277 16.047 C 300.222 16.047,299.586 15.776,298.864 15.444 C 298.141 15.112,297.323 14.740,297.044 14.618 C 296.765 14.495,296.112 14.197,295.592 13.954 C 295.072 13.712,294.589 13.514,294.519 13.514 C 294.449 13.514,294.153 13.403,293.860 13.268 C 293.129 12.931,288.696 11.209,288.176 11.060 C 287.943 10.993,287.677 10.882,287.584 10.812 C 287.492 10.743,286.997 10.557,286.486 10.399 C 285.976 10.241,285.405 10.048,285.220 9.971 C 285.034 9.894,284.616 9.740,284.291 9.628 C 283.965 9.517,283.547 9.363,283.361 9.287 C 283.065 9.166,281.880 8.794,277.956 7.590 C 275.998 6.990,272.198 5.922,270.777 5.573 C 269.987 5.380,269.227 5.191,269.088 5.154 C 264.524 3.951,256.090 2.371,250.169 1.608 C 249.101 1.471,247.770 1.285,247.213 1.195 C 246.655 1.105,244.717 0.913,242.905 0.767 C 241.094 0.621,238.889 0.420,238.007 0.320 C 236.092 0.103,218.859 -0.019,215.963 0.164 M42.483 74.242 C 42.390 74.274,40.655 74.388,38.627 74.494 C 36.599 74.601,34.357 74.752,33.644 74.830 C 31.409 75.077,26.785 75.681,26.520 75.761 C 26.381 75.803,25.203 76.027,23.902 76.257 C 21.385 76.703,18.626 77.301,16.554 77.849 C 15.857 78.033,14.679 78.344,13.936 78.540 C 13.193 78.736,12.432 78.963,12.247 79.046 C 12.061 79.128,10.997 79.480,9.882 79.827 C 8.767 80.174,7.748 80.541,7.618 80.643 C 7.487 80.744,7.335 80.818,7.280 80.806 C 7.224 80.794,7.003 80.851,6.788 80.932 C 6.573 81.014,6.305 81.081,6.192 81.081 C 6.079 81.081,5.837 81.184,5.654 81.310 C 5.471 81.437,5.017 81.636,4.645 81.754 C 3.846 82.007,2.458 82.612,1.225 83.245 L 0.339 83.699 0.338 95.324 L 0.338 106.948 0.718 106.834 C 0.927 106.771,1.326 106.617,1.605 106.491 C 1.883 106.366,2.492 106.143,2.956 105.995 C 3.421 105.847,3.953 105.658,4.139 105.575 C 4.589 105.373,7.099 104.550,9.291 103.885 C 10.266 103.589,11.368 103.250,11.740 103.131 C 12.111 103.012,12.834 102.824,13.345 102.712 C 13.856 102.601,14.426 102.442,14.611 102.360 C 14.931 102.219,15.541 102.075,20.017 101.087 C 25.023 99.981,28.999 99.306,33.361 98.823 C 35.034 98.637,37.005 98.408,37.742 98.313 C 42.318 97.726,55.517 97.728,59.434 98.318 C 60.052 98.411,61.812 98.638,63.345 98.823 C 66.064 99.151,69.325 99.706,71.706 100.246 C 74.564 100.894,79.007 102.082,79.645 102.369 C 79.831 102.452,80.419 102.643,80.951 102.792 C 81.484 102.941,81.958 103.125,82.005 103.202 C 82.053 103.278,82.300 103.393,82.555 103.457 C 82.810 103.521,83.421 103.758,83.913 103.983 C 84.405 104.208,84.848 104.392,84.897 104.392 C 85.017 104.392,85.894 104.798,91.132 107.276 C 91.782 107.583,92.352 107.878,92.399 107.929 C 92.445 107.981,93.091 108.323,93.834 108.689 C 95.007 109.267,96.784 110.258,100.507 112.411 C 101.721 113.113,107.230 116.682,107.432 116.897 C 107.479 116.947,107.935 117.287,108.446 117.654 C 108.957 118.021,109.475 118.417,109.598 118.535 C 109.721 118.653,109.873 118.750,109.936 118.750 C 109.999 118.750,110.250 118.921,110.493 119.130 C 110.736 119.339,111.189 119.700,111.499 119.932 C 112.153 120.421,116.138 123.740,116.639 124.212 C 116.824 124.387,117.508 124.959,118.159 125.483 C 118.809 126.007,119.424 126.512,119.526 126.605 C 119.627 126.698,119.931 126.942,120.201 127.147 C 120.471 127.352,121.650 128.264,122.820 129.174 C 125.362 131.151,125.260 131.075,127.703 132.763 C 128.771 133.501,129.873 134.264,130.152 134.459 C 130.431 134.654,131.153 135.125,131.757 135.507 C 132.361 135.888,133.235 136.443,133.699 136.739 C 135.228 137.716,135.728 138.010,138.298 139.445 C 140.481 140.664,146.396 143.581,146.684 143.581 C 146.737 143.581,147.182 143.762,147.672 143.984 C 148.163 144.205,148.754 144.441,148.986 144.509 C 149.219 144.577,149.637 144.731,149.916 144.852 C 150.194 144.973,150.840 145.198,151.351 145.352 C 151.862 145.506,152.432 145.700,152.618 145.783 C 156.911 147.697,170.191 148.675,176.520 147.543 C 177.310 147.402,179.134 147.104,180.574 146.882 C 188.027 145.733,194.752 144.536,198.057 143.771 C 200.389 143.232,203.733 143.378,204.208 144.041 C 204.263 144.118,204.512 144.310,204.762 144.469 C 206.283 145.437,206.677 146.896,207.188 153.463 C 208.134 165.613,208.508 169.684,208.756 170.526 C 209.763 173.940,212.541 176.618,216.039 177.548 C 217.578 177.957,221.235 178.750,226.057 179.720 C 229.303 180.374,229.923 181.498,230.487 187.753 C 230.629 189.333,230.822 191.195,230.914 191.892 C 231.007 192.589,231.151 193.747,231.235 194.466 C 231.557 197.234,232.953 198.809,235.333 199.087 C 236.253 199.194,238.398 198.920,238.767 198.648 C 238.860 198.580,239.202 198.438,239.527 198.333 C 239.852 198.228,240.650 197.870,241.301 197.538 C 246.421 194.926,248.818 195.789,248.818 200.247 C 248.818 201.121,248.746 202.025,248.658 202.255 C 247.170 206.169,248.858 213.749,251.678 215.819 C 251.824 215.925,252.117 216.165,252.330 216.352 C 252.543 216.539,253.228 216.934,253.850 217.232 C 255.787 218.155,255.859 218.178,257.826 218.500 C 260.028 218.861,263.883 219.571,264.527 219.734 C 268.508 220.746,268.994 224.510,265.961 230.828 C 265.417 231.962,264.667 233.607,264.614 233.784 C 264.600 233.830,264.378 234.324,264.121 234.882 C 263.865 235.439,263.347 236.653,262.971 237.579 C 262.595 238.505,262.226 239.380,262.151 239.522 C 261.868 240.056,261.184 241.654,261.064 242.061 C 260.996 242.293,260.804 242.787,260.638 243.159 C 260.473 243.530,260.059 244.557,259.720 245.439 C 259.380 246.322,259.002 247.272,258.879 247.551 C 258.755 247.829,258.561 248.350,258.447 248.707 C 258.333 249.065,258.135 249.559,258.006 249.805 C 257.878 250.052,257.772 250.318,257.771 250.397 C 257.771 250.476,257.659 250.780,257.523 251.072 C 257.386 251.365,256.967 252.479,256.591 253.547 C 256.215 254.616,255.837 255.642,255.753 255.828 C 255.594 256.175,255.072 257.612,254.617 258.953 C 254.475 259.371,254.260 259.941,254.137 260.220 C 254.015 260.498,253.825 261.068,253.715 261.486 C 253.605 261.905,253.459 262.323,253.392 262.416 C 253.324 262.508,253.128 263.079,252.956 263.682 C 252.784 264.286,252.594 264.856,252.534 264.949 C 252.473 265.042,252.137 266.030,251.786 267.145 C 251.435 268.260,251.105 269.286,251.053 269.426 C 251.001 269.565,250.948 269.717,250.934 269.764 C 250.741 270.449,249.428 274.498,249.318 274.747 C 249.237 274.932,249.087 275.427,248.986 275.845 C 248.886 276.263,248.735 276.757,248.651 276.943 C 248.567 277.128,248.341 277.851,248.148 278.547 C 247.688 280.212,247.709 280.139,247.292 281.503 C 246.884 282.839,246.219 285.228,245.835 286.740 C 245.693 287.297,245.533 287.867,245.478 288.007 C 245.423 288.146,245.358 288.374,245.333 288.514 C 245.308 288.653,244.931 290.097,244.496 291.723 C 243.685 294.757,243.209 296.666,242.455 299.916 C 241.611 303.552,241.362 304.660,241.124 305.828 C 240.991 306.478,240.733 307.694,240.549 308.530 C 240.236 309.958,239.857 311.897,239.031 316.301 C 238.696 318.086,238.362 320.123,237.659 324.662 C 237.479 325.823,237.145 328.256,236.916 330.068 C 236.688 331.879,236.458 333.590,236.407 333.868 C 236.317 334.352,235.792 340.054,235.474 344.003 C 234.755 352.925,234.754 366.122,235.472 373.981 C 235.768 377.225,236.321 382.359,236.419 382.770 C 236.474 383.003,236.701 384.371,236.923 385.811 C 237.145 387.251,237.481 389.227,237.671 390.203 C 237.860 391.178,238.052 392.166,238.096 392.399 C 238.699 395.542,240.661 402.950,241.418 404.941 L 241.595 405.405 252.723 405.405 C 258.844 405.405,263.851 405.348,263.851 405.278 C 263.851 405.208,263.477 404.011,263.020 402.617 C 261.540 398.111,260.533 394.062,259.450 388.260 C 259.061 386.180,259.019 385.913,258.788 384.122 C 258.698 383.425,258.550 382.323,258.460 381.672 C 257.449 374.371,256.937 360.027,257.417 352.449 C 257.975 343.637,258.136 341.373,258.274 340.372 C 258.415 339.346,258.502 338.590,258.955 334.459 C 259.562 328.928,261.543 316.939,262.584 312.500 C 262.726 311.896,263.066 310.376,263.340 309.122 C 263.829 306.888,264.430 304.384,264.921 302.534 C 265.057 302.023,265.336 300.845,265.541 299.916 C 266.356 296.219,268.261 288.527,268.761 286.909 C 268.847 286.630,269.216 285.338,269.582 284.037 C 269.947 282.736,270.406 281.140,270.601 280.490 C 270.796 279.840,271.112 278.775,271.304 278.125 C 271.833 276.331,273.321 271.582,273.475 271.199 C 273.549 271.014,274.079 269.417,274.652 267.652 C 275.226 265.887,275.759 264.291,275.838 264.105 C 275.917 263.919,276.301 262.817,276.692 261.655 C 277.083 260.494,277.508 259.304,277.637 259.012 C 277.766 258.719,277.872 258.362,277.872 258.219 C 277.872 258.076,277.948 257.912,278.041 257.855 C 278.133 257.797,278.209 257.580,278.209 257.372 C 278.209 257.164,278.274 256.921,278.352 256.833 C 278.431 256.745,278.746 255.950,279.053 255.068 C 279.359 254.185,279.709 253.235,279.830 252.956 C 279.951 252.677,280.212 251.993,280.411 251.436 C 280.610 250.878,280.922 250.004,281.105 249.493 C 281.287 248.982,281.547 248.325,281.681 248.032 C 281.816 247.739,281.926 247.447,281.926 247.382 C 281.926 247.317,282.035 247.024,282.169 246.732 C 282.304 246.439,282.686 245.477,283.019 244.595 C 283.352 243.712,283.767 242.686,283.940 242.314 C 284.114 241.943,284.310 241.448,284.378 241.216 C 284.445 240.984,284.633 240.490,284.795 240.118 C 284.957 239.747,285.525 238.378,286.056 237.078 C 286.587 235.777,287.121 234.485,287.242 234.206 C 287.364 233.927,287.705 233.129,288.001 232.432 C 288.297 231.736,288.686 230.843,288.864 230.449 C 289.043 230.056,289.189 229.690,289.189 229.637 C 289.189 229.525,289.604 228.601,291.311 224.916 C 291.741 223.986,292.207 222.922,292.346 222.551 C 292.485 222.179,292.662 221.723,292.739 221.537 C 294.223 217.965,294.203 212.905,292.691 209.470 C 290.724 204.999,285.467 201.914,278.716 201.268 C 273.567 200.776,267.860 199.206,265.963 197.760 C 264.766 196.848,264.427 196.554,264.206 196.236 C 264.063 196.030,263.817 195.747,263.658 195.608 C 262.344 194.451,261.622 190.736,261.687 185.461 C 261.745 180.752,260.407 178.334,256.757 176.552 C 252.947 174.692,249.072 175.588,245.474 179.161 L 244.074 180.552 244.172 179.592 C 244.227 179.064,244.342 177.834,244.429 176.858 C 244.516 175.883,244.709 173.716,244.859 172.044 C 245.339 166.669,244.980 164.978,242.905 162.844 C 241.215 161.105,240.038 160.417,237.584 159.730 C 237.027 159.574,236.419 159.381,236.233 159.301 C 236.047 159.220,234.983 158.873,233.868 158.528 C 232.753 158.184,231.689 157.840,231.503 157.763 C 231.318 157.687,230.523 157.423,229.737 157.177 C 227.609 156.510,226.421 155.689,225.983 154.584 C 225.699 153.865,224.465 143.797,223.397 133.483 C 222.741 127.148,220.589 124.173,215.488 122.548 C 211.421 121.252,201.434 121.973,179.139 125.172 C 171.797 126.225,164.992 125.787,159.145 123.884 C 158.460 123.662,157.826 123.480,157.734 123.480 C 157.643 123.480,157.328 123.372,157.036 123.239 C 156.743 123.107,155.933 122.756,155.236 122.460 C 153.799 121.849,150.610 120.194,149.011 119.229 C 148.421 118.873,147.910 118.581,147.875 118.581 C 147.728 118.581,141.866 114.763,141.261 114.274 C 141.146 114.181,140.516 113.725,139.862 113.260 C 138.489 112.286,134.505 109.201,134.104 108.801 C 133.807 108.505,133.493 108.238,132.096 107.094 C 131.586 106.676,131.092 106.251,130.998 106.148 C 130.800 105.931,129.039 104.500,128.215 103.885 C 127.904 103.653,127.213 103.121,126.681 102.703 C 124.569 101.045,121.239 98.653,118.750 97.007 C 117.310 96.055,116.056 95.216,115.963 95.144 C 115.870 95.071,115.224 94.672,114.527 94.257 C 113.830 93.842,113.235 93.444,113.204 93.373 C 113.173 93.301,113.088 93.243,113.014 93.243 C 112.898 93.243,110.149 91.670,109.459 91.208 C 109.320 91.115,108.902 90.885,108.530 90.698 C 108.159 90.510,107.589 90.197,107.264 90.001 C 106.685 89.654,99.938 86.206,99.699 86.135 C 99.632 86.116,98.932 85.802,98.142 85.439 C 97.352 85.075,96.554 84.709,96.368 84.624 C 96.182 84.540,95.384 84.213,94.595 83.898 C 93.805 83.583,93.007 83.264,92.821 83.189 C 92.635 83.114,92.445 83.040,92.399 83.024 C 92.352 83.008,92.162 82.934,91.976 82.859 C 89.945 82.047,86.252 80.792,84.279 80.243 C 83.588 80.051,82.340 79.698,81.503 79.458 C 76.711 78.081,72.217 77.027,68.243 76.346 C 67.175 76.163,65.921 75.939,65.456 75.847 C 64.992 75.755,63.661 75.567,62.500 75.427 C 61.339 75.288,59.894 75.100,59.291 75.010 C 56.015 74.519,43.341 73.940,42.483 74.242 M59.829 115.488 C 59.741 115.656,59.353 116.668,58.967 117.736 C 58.581 118.805,58.195 119.831,58.108 120.017 C 58.020 120.203,57.601 121.416,57.175 122.713 C 54.325 131.391,52.496 139.844,51.342 149.662 C 50.939 153.099,50.960 152.865,50.616 157.686 C 50.041 165.755,49.966 167.671,49.961 174.378 C 49.956 181.010,50.029 182.708,50.610 189.611 C 51.174 196.308,52.286 203.682,53.782 210.642 C 54.668 214.766,56.580 221.918,57.694 225.273 C 57.938 226.005,58.157 226.681,58.181 226.774 C 58.206 226.867,58.270 227.057,58.323 227.196 C 58.377 227.335,58.692 228.247,59.024 229.223 C 59.849 231.646,60.439 233.259,60.733 233.894 C 60.869 234.187,60.980 234.507,60.980 234.607 C 60.980 234.706,61.170 235.203,61.402 235.711 C 61.634 236.218,61.827 236.696,61.830 236.771 C 61.833 236.847,61.983 237.213,62.162 237.584 C 62.342 237.956,62.491 238.315,62.494 238.382 C 62.497 238.449,62.690 238.919,62.922 239.427 C 63.155 239.935,63.345 240.391,63.345 240.441 C 63.345 240.491,63.579 241.047,63.866 241.677 C 64.153 242.306,64.590 243.277,64.837 243.834 C 66.477 247.527,72.287 258.607,72.662 258.756 C 72.740 258.787,72.804 258.880,72.804 258.964 C 72.804 259.047,73.108 259.612,73.480 260.220 C 73.851 260.827,74.155 261.398,74.155 261.489 C 74.155 261.581,74.219 261.655,74.297 261.655 C 74.375 261.655,74.523 261.839,74.625 262.064 C 74.728 262.289,75.245 263.144,75.775 263.965 C 77.578 266.755,78.951 268.834,79.045 268.919 C 79.096 268.965,79.443 269.459,79.814 270.015 C 80.371 270.849,81.670 272.676,82.219 273.396 C 82.290 273.489,82.689 274.021,83.106 274.578 C 83.523 275.135,84.322 276.169,84.880 276.875 C 85.438 277.581,86.123 278.453,86.402 278.813 C 86.954 279.524,89.319 282.401,89.604 282.706 C 89.701 282.810,90.096 283.266,90.482 283.719 C 90.869 284.173,91.401 284.785,91.665 285.079 C 91.929 285.373,92.563 286.088,93.074 286.668 C 95.281 289.173,99.162 293.123,102.523 296.284 C 105.483 299.068,105.199 298.808,106.931 300.314 C 107.718 300.998,108.793 301.933,109.321 302.392 C 109.849 302.850,110.685 303.544,111.179 303.933 C 111.673 304.322,112.161 304.718,112.262 304.812 C 112.364 304.906,112.698 305.173,113.005 305.405 C 113.312 305.638,114.532 306.588,115.717 307.517 C 116.901 308.446,118.041 309.320,118.249 309.459 C 118.458 309.599,118.992 309.979,119.436 310.304 C 119.881 310.629,120.411 311.009,120.615 311.149 C 120.818 311.288,121.147 311.523,121.346 311.672 C 121.544 311.820,122.200 312.275,122.804 312.682 C 123.408 313.089,123.978 313.480,124.071 313.550 C 124.531 313.897,128.107 316.228,129.202 316.894 C 129.887 317.311,130.724 317.821,131.060 318.028 C 131.397 318.234,131.900 318.530,132.179 318.685 C 132.458 318.839,132.724 319.012,132.770 319.069 C 132.817 319.126,133.135 319.324,133.478 319.510 C 133.821 319.696,135.285 320.513,136.731 321.326 C 138.177 322.139,139.431 322.804,139.516 322.804 C 139.602 322.804,139.772 322.899,139.895 323.015 C 140.110 323.218,147.325 326.858,147.512 326.858 C 147.562 326.858,148.390 327.227,149.351 327.677 C 151.735 328.794,152.315 329.054,152.428 329.054 C 152.481 329.054,152.939 329.244,153.447 329.476 C 153.955 329.709,154.411 329.899,154.461 329.899 C 154.510 329.899,154.952 330.080,155.443 330.301 C 155.933 330.522,156.524 330.760,156.757 330.829 C 156.989 330.897,157.255 331.010,157.348 331.080 C 157.441 331.149,157.821 331.301,158.193 331.417 C 158.564 331.533,159.096 331.732,159.375 331.859 C 160.089 332.184,163.882 333.514,166.385 334.316 C 167.546 334.689,168.649 335.059,168.834 335.140 C 169.154 335.278,169.693 335.435,173.142 336.396 C 176.985 337.468,177.893 337.711,179.223 338.027 C 185.125 339.427,190.364 340.363,195.608 340.955 C 196.862 341.097,198.497 341.289,199.240 341.382 C 202.210 341.753,211.567 342.224,216.068 342.227 L 218.707 342.230 218.808 341.343 C 218.863 340.855,219.065 338.898,219.256 336.993 C 220.006 329.524,221.467 318.682,222.124 315.709 C 222.217 315.291,222.444 314.075,222.630 313.007 C 222.815 311.938,223.161 310.152,223.397 309.037 C 224.315 304.706,224.484 303.923,224.805 302.534 C 224.988 301.744,225.365 300.096,225.642 298.872 C 225.920 297.648,226.193 296.573,226.248 296.483 C 226.311 296.381,225.402 296.281,223.859 296.219 C 214.526 295.843,208.404 295.177,201.267 293.759 C 197.819 293.074,194.933 292.355,190.118 290.983 C 190.025 290.957,189.645 290.848,189.274 290.742 C 188.176 290.429,185.161 289.419,183.615 288.848 C 182.825 288.557,181.936 288.246,181.639 288.157 C 181.341 288.068,180.885 287.885,180.625 287.749 C 180.365 287.613,180.089 287.502,180.011 287.501 C 179.934 287.500,179.326 287.267,178.660 286.983 C 177.994 286.699,176.993 286.273,176.436 286.037 C 175.878 285.800,174.814 285.323,174.071 284.975 C 173.328 284.627,172.073 284.047,171.284 283.685 C 170.494 283.324,169.354 282.753,168.750 282.416 C 168.146 282.079,167.481 281.749,167.272 281.684 C 167.063 281.619,166.892 281.494,166.892 281.408 C 166.892 281.321,166.797 281.250,166.681 281.249 C 166.565 281.249,165.600 280.755,164.537 280.151 C 163.474 279.548,162.549 279.054,162.482 279.054 C 162.414 279.054,162.334 278.994,162.303 278.920 C 162.272 278.847,161.829 278.553,161.318 278.267 C 160.168 277.623,155.318 274.443,153.562 273.181 C 153.219 272.935,152.517 272.406,151.774 271.833 C 151.681 271.762,151.391 271.566,151.129 271.398 C 150.867 271.230,150.525 270.989,150.369 270.862 C 150.212 270.735,149.286 270.002,148.311 269.233 C 147.335 268.464,146.453 267.755,146.351 267.659 C 146.249 267.562,145.758 267.141,145.260 266.723 C 144.762 266.305,144.194 265.811,143.998 265.625 C 143.801 265.439,143.114 264.832,142.471 264.276 C 138.751 261.060,132.887 254.829,128.746 249.692 C 128.497 249.383,128.180 248.995,128.041 248.828 C 126.975 247.553,124.290 243.825,122.529 241.175 C 120.643 238.338,119.703 236.827,118.559 234.797 C 118.166 234.101,117.802 233.492,117.749 233.446 C 117.555 233.277,113.693 225.689,113.062 224.239 C 112.860 223.775,112.416 222.749,112.075 221.959 C 111.735 221.170,111.311 220.215,111.133 219.837 C 110.956 219.459,110.811 219.091,110.811 219.018 C 110.811 218.945,110.701 218.646,110.567 218.353 C 110.235 217.627,109.188 214.878,109.047 214.358 C 108.983 214.126,108.868 213.784,108.791 213.598 C 108.536 212.988,107.802 210.757,107.290 209.037 C 106.240 205.514,106.079 204.944,105.738 203.547 C 105.545 202.758,105.274 201.655,105.135 201.098 C 100.887 183.995,100.610 161.293,104.455 145.355 C 104.967 143.232,106.186 138.895,106.417 138.376 C 106.610 137.942,105.869 137.118,102.896 134.456 C 102.119 133.761,101.314 133.041,101.107 132.855 C 100.699 132.490,99.655 131.667,98.057 130.450 C 93.874 127.264,87.429 123.451,83.277 121.706 C 82.673 121.453,81.875 121.106,81.503 120.936 C 79.978 120.240,75.742 118.725,72.297 117.645 C 69.651 116.815,64.193 115.685,60.949 115.296 C 60.123 115.197,59.967 115.224,59.829 115.488 " stroke="none" fill="#848494" fill-rule="evenodd"></path><path id="path1" d="M167.865 125.626 C 168.075 125.667,168.379 125.665,168.541 125.623 C 168.702 125.581,168.530 125.547,168.159 125.549 C 167.787 125.551,167.655 125.586,167.865 125.626 M175.380 125.623 C 175.543 125.666,175.809 125.666,175.971 125.623 C 176.134 125.581,176.001 125.546,175.676 125.546 C 175.351 125.546,175.217 125.581,175.380 125.623 M208.320 167.990 C 208.322 168.361,208.356 168.494,208.396 168.284 C 208.437 168.073,208.435 167.769,208.393 167.608 C 208.351 167.446,208.318 167.618,208.320 167.990 M235.681 340.878 C 235.681 341.204,235.716 341.337,235.758 341.174 C 235.801 341.011,235.801 340.745,235.758 340.583 C 235.716 340.420,235.681 340.553,235.681 340.878 " stroke="none" fill="#888494" fill-rule="evenodd"></path><path id="path2" d="M167.865 125.626 C 168.075 125.667,168.379 125.665,168.541 125.623 C 168.702 125.581,168.530 125.547,168.159 125.549 C 167.787 125.551,167.655 125.586,167.865 125.626 M175.380 125.623 C 175.543 125.666,175.809 125.666,175.971 125.623 C 176.134 125.581,176.001 125.546,175.676 125.546 C 175.351 125.546,175.217 125.581,175.380 125.623 M208.320 167.990 C 208.322 168.361,208.356 168.494,208.396 168.284 C 208.437 168.073,208.435 167.769,208.393 167.608 C 208.351 167.446,208.318 167.618,208.320 167.990 M235.681 340.878 C 235.681 341.204,235.716 341.337,235.758 341.174 C 235.801 341.011,235.801 340.745,235.758 340.583 C 235.716 340.420,235.681 340.553,235.681 340.878 " stroke="none" fill="#888494" fill-rule="evenodd"></path><path id="path3" d="M167.865 125.626 C 168.075 125.667,168.379 125.665,168.541 125.623 C 168.702 125.581,168.530 125.547,168.159 125.549 C 167.787 125.551,167.655 125.586,167.865 125.626 M175.380 125.623 C 175.543 125.666,175.809 125.666,175.971 125.623 C 176.134 125.581,176.001 125.546,175.676 125.546 C 175.351 125.546,175.217 125.581,175.380 125.623 M208.320 167.990 C 208.322 168.361,208.356 168.494,208.396 168.284 C 208.437 168.073,208.435 167.769,208.393 167.608 C 208.351 167.446,208.318 167.618,208.320 167.990 M235.681 340.878 C 235.681 341.204,235.716 341.337,235.758 341.174 C 235.801 341.011,235.801 340.745,235.758 340.583 C 235.716 340.420,235.681 340.553,235.681 340.878 " stroke="none" fill="#888494" fill-rule="evenodd"></path><path id="path4" d="M167.865 125.626 C 168.075 125.667,168.379 125.665,168.541 125.623 C 168.702 125.581,168.530 125.547,168.159 125.549 C 167.787 125.551,167.655 125.586,167.865 125.626 M175.380 125.623 C 175.543 125.666,175.809 125.666,175.971 125.623 C 176.134 125.581,176.001 125.546,175.676 125.546 C 175.351 125.546,175.217 125.581,175.380 125.623 M208.320 167.990 C 208.322 168.361,208.356 168.494,208.396 168.284 C 208.437 168.073,208.435 167.769,208.393 167.608 C 208.351 167.446,208.318 167.618,208.320 167.990 M235.681 340.878 C 235.681 341.204,235.716 341.337,235.758 341.174 C 235.801 341.011,235.801 340.745,235.758 340.583 C 235.716 340.420,235.681 340.553,235.681 340.878 " stroke="none" fill="#888494" fill-rule="evenodd"></path></g></svg>